{
	"asset":{
		"generator":"Khronos glTF Blender I/O v3.5.30",
		"version":"2.0"
	},
	"scene":0,
	"scenes":[
		{
			"name":"Scene",
			"nodes":[
				0
			]
		}
	],
	"nodes":[
		{
			"mesh":0,
			"name":"BonecoNeve"
		}
	],
	"materials":[
		{
			"doubleSided":true,
			"name":"BonecoNeveMaterial",
			"pbrMetallicRoughness":{
				"baseColorTexture":{
					"index":0
				},
				"metallicFactor":0,
				"roughnessFactor":0.5
			}
		}
	],
	"meshes":[
		{
			"name":"Sphere.001",
			"primitives":[
				{
					"attributes":{
						"COLOR_0":0,
						"POSITION":1,
						"TEXCOORD_0":2,
						"NORMAL":3
					},
					"indices":4,
					"material":0
				}
			]
		}
	],
	"textures":[
		{
			"sampler":0,
			"source":0
		}
	],
	"images":[
		{
			"bufferView":5,
			"mimeType":"image/png",
			"name":"BonecoNeve"
		}
	],
	"accessors":[
		{
			"bufferView":0,
			"componentType":5123,
			"count":6462,
			"normalized":true,
			"type":"VEC4"
		},
		{
			"bufferView":1,
			"componentType":5126,
			"count":6462,
			"max":[
				1.260238766670227,
				2.0768356323242188,
				1.5198698043823242
			],
			"min":[
				-1.260238766670227,
				-2.0768353939056396,
				-1.5198698043823242
			],
			"type":"VEC3"
		},
		{
			"bufferView":2,
			"componentType":5126,
			"count":6462,
			"type":"VEC2"
		},
		{
			"bufferView":3,
			"componentType":5126,
			"count":6462,
			"type":"VEC3"
		},
		{
			"bufferView":4,
			"componentType":5123,
			"count":29928,
			"type":"SCALAR"
		}
	],
	"bufferViews":[
		{
			"buffer":0,
			"byteLength":51696,
			"byteOffset":0,
			"target":34962
		},
		{
			"buffer":0,
			"byteLength":77544,
			"byteOffset":51696,
			"target":34962
		},
		{
			"buffer":0,
			"byteLength":51696,
			"byteOffset":129240,
			"target":34962
		},
		{
			"buffer":0,
			"byteLength":77544,
			"byteOffset":180936,
			"target":34962
		},
		{
			"buffer":0,
			"byteLength":59856,
			"byteOffset":258480,
			"target":34963
		},
		{
			"buffer":0,
			"byteLength":361290,
			"byteOffset":318336
		}
	],
	"samplers":[
		{
			"magFilter":9729,
			"minFilter":9987
		}
	],
	"buffers":[
		{
			"byteLength":679628,
			"uri":"data:application/octet-stream;base64,"
		}
	]
}
