{
	"asset":{
		"generator":"Khronos glTF Blender I/O v3.5.30",
		"version":"2.0"
	},
	"scene":0,
	"scenes":[
		{
			"name":"Scene",
			"nodes":[
				0
			]
		}
	],
	"nodes":[
		{
			"mesh":0,
			"name":"Iglu"
		}
	],
	"materials":[
		{
			"doubleSided":true,
			"name":"Material.002",
			"pbrMetallicRoughness":{
				"baseColorTexture":{
					"index":0
				},
				"metallicFactor":0,
				"roughnessFactor":0.5
			}
		}
	],
	"meshes":[
		{
			"name":"Sphere.002",
			"primitives":[
				{
					"attributes":{
						"POSITION":0,
						"TEXCOORD_0":1,
						"NORMAL":2
					},
					"indices":3,
					"material":0
				}
			]
		}
	],
	"textures":[
		{
			"sampler":0,
			"source":0
		}
	],
	"images":[
		{
			"bufferView":4,
			"mimeType":"image/png",
			"name":"IgluTextura"
		}
	],
	"accessors":[
		{
			"bufferView":0,
			"componentType":5126,
			"count":961,
			"max":[
				2.7890231609344482,
				2.041684627532959,
				2.897859573364258
			],
			"min":[
				-2.7890231609344482,
				-2.041684627532959,
				-2.897859573364258
			],
			"type":"VEC3"
		},
		{
			"bufferView":1,
			"componentType":5126,
			"count":961,
			"type":"VEC2"
		},
		{
			"bufferView":2,
			"componentType":5126,
			"count":961,
			"type":"VEC3"
		},
		{
			"bufferView":3,
			"componentType":5123,
			"count":3747,
			"type":"SCALAR"
		}
	],
	"bufferViews":[
		{
			"buffer":0,
			"byteLength":11532,
			"byteOffset":0,
			"target":34962
		},
		{
			"buffer":0,
			"byteLength":7688,
			"byteOffset":11532,
			"target":34962
		},
		{
			"buffer":0,
			"byteLength":11532,
			"byteOffset":19220,
			"target":34962
		},
		{
			"buffer":0,
			"byteLength":7494,
			"byteOffset":30752,
			"target":34963
		},
		{
			"buffer":0,
			"byteLength":59450,
			"byteOffset":38248
		}
	],
	"samplers":[
		{
			"magFilter":9729,
			"minFilter":9987
		}
	],
	"buffers":[
		{
			"byteLength":97700,
			"uri":"data:application/octet-stream;base64,"
		}
	]
}
