{
	"asset":{
		"generator":"Khronos glTF Blender I/O v3.5.30",
		"version":"2.0"
	},
	"scene":0,
	"scenes":[
		{
			"name":"Scene",
			"nodes":[
				0
			]
		}
	],
	"nodes":[
		{
			"mesh":0,
			"name":"Plane"
		}
	],
	"materials":[
		{
			"doubleSided":true,
			"name":"neve",
			"pbrMetallicRoughness":{
				"metallicFactor":0,
				"roughnessFactor":0.5
			}
		}
	],
	"meshes":[
		{
			"name":"Plane.002",
			"primitives":[
				{
					"attributes":{
						"POSITION":0,
						"TEXCOORD_0":1,
						"NORMAL":2
					},
					"indices":3,
					"material":0
				}
			]
		}
	],
	"accessors":[
		{
			"bufferView":0,
			"componentType":5126,
			"count":3969,
			"max":[
				118.21749877929688,
				18.54700469970703,
				118.21749877929688
			],
			"min":[
				-118.21749877929688,
				0,
				-118.21749877929688
			],
			"type":"VEC3"
		},
		{
			"bufferView":1,
			"componentType":5126,
			"count":3969,
			"type":"VEC2"
		},
		{
			"bufferView":2,
			"componentType":5126,
			"count":3969,
			"type":"VEC3"
		},
		{
			"bufferView":3,
			"componentType":5123,
			"count":23064,
			"type":"SCALAR"
		}
	],
	"bufferViews":[
		{
			"buffer":0,
			"byteLength":47628,
			"byteOffset":0,
			"target":34962
		},
		{
			"buffer":0,
			"byteLength":31752,
			"byteOffset":47628,
			"target":34962
		},
		{
			"buffer":0,
			"byteLength":47628,
			"byteOffset":79380,
			"target":34962
		},
		{
			"buffer":0,
			"byteLength":46128,
			"byteOffset":127008,
			"target":34963
		}
	],
	"buffers":[
		{
			"byteLength":173136,
			"uri":"data:application/octet-stream;base64,"
		}
	]
}
