{
	"asset":{
		"generator":"Khronos glTF Blender I/O v3.5.30",
		"version":"2.0"
	},
	"scene":0,
	"scenes":[
		{
			"name":"Scene",
			"nodes":[
				0
			]
		}
	],
	"nodes":[
		{
			"mesh":0,
			"name":"Gelo"
		}
	],
	"materials":[
		{
			"doubleSided":true,
			"name":"GeloMaterial",
			"pbrMetallicRoughness":{
				"baseColorTexture":{
					"index":0
				},
				"metallicFactor":0,
				"roughnessFactor":0.5
			}
		}
	],
	"meshes":[
		{
			"name":"Sphere",
			"primitives":[
				{
					"attributes":{
						"COLOR_0":0,
						"POSITION":1,
						"TEXCOORD_0":2,
						"NORMAL":3
					},
					"indices":4,
					"material":0
				}
			]
		}
	],
	"textures":[
		{
			"sampler":0,
			"source":0
		}
	],
	"images":[
		{
			"bufferView":5,
			"mimeType":"image/png",
			"name":"CuboGelo"
		}
	],
	"accessors":[
		{
			"bufferView":0,
			"componentType":5123,
			"count":4146,
			"normalized":true,
			"type":"VEC4"
		},
		{
			"bufferView":1,
			"componentType":5126,
			"count":4146,
			"max":[
				1.0430723428726196,
				0.38880276679992676,
				1.0874476432800293
			],
			"min":[
				-1.0430723428726196,
				-0.38880279660224915,
				-1.0874476432800293
			],
			"type":"VEC3"
		},
		{
			"bufferView":2,
			"componentType":5126,
			"count":4146,
			"type":"VEC2"
		},
		{
			"bufferView":3,
			"componentType":5126,
			"count":4146,
			"type":"VEC3"
		},
		{
			"bufferView":4,
			"componentType":5123,
			"count":23520,
			"type":"SCALAR"
		}
	],
	"bufferViews":[
		{
			"buffer":0,
			"byteLength":33168,
			"byteOffset":0,
			"target":34962
		},
		{
			"buffer":0,
			"byteLength":49752,
			"byteOffset":33168,
			"target":34962
		},
		{
			"buffer":0,
			"byteLength":33168,
			"byteOffset":82920,
			"target":34962
		},
		{
			"buffer":0,
			"byteLength":49752,
			"byteOffset":116088,
			"target":34962
		},
		{
			"buffer":0,
			"byteLength":47040,
			"byteOffset":165840,
			"target":34963
		},
		{
			"buffer":0,
			"byteLength":98269,
			"byteOffset":212880
		}
	],
	"samplers":[
		{
			"magFilter":9729,
			"minFilter":9987
		}
	],
	"buffers":[
		{
			"byteLength":311152,
			"uri":"data:application/octet-stream;base64,"
		}
	]
}
