{
	"asset":{
		"generator":"Khronos glTF Blender I/O v3.5.30",
		"version":"2.0"
	},
	"scene":0,
	"scenes":[
		{
			"name":"Scene",
			"nodes":[
				0
			]
		}
	],
	"nodes":[
		{
			"mesh":0,
			"name":"MadeiraPequena"
		}
	],
	"materials":[
		{
			"doubleSided":true,
			"name":"MadeiraMateria",
			"pbrMetallicRoughness":{
				"baseColorTexture":{
					"index":0
				},
				"metallicFactor":0,
				"roughnessFactor":0.5
			}
		}
	],
	"meshes":[
		{
			"name":"Cylinder",
			"primitives":[
				{
					"attributes":{
						"POSITION":0,
						"TEXCOORD_0":1,
						"NORMAL":2
					},
					"indices":3,
					"material":0
				}
			]
		}
	],
	"textures":[
		{
			"sampler":0,
			"source":0
		}
	],
	"images":[
		{
			"bufferView":4,
			"mimeType":"image/png",
			"name":"MadeiraTextura"
		}
	],
	"accessors":[
		{
			"bufferView":0,
			"componentType":5126,
			"count":619,
			"max":[
				0.458908349275589,
				0.44967395067214966,
				1.873678207397461
			],
			"min":[
				-0.458908349275589,
				-0.44967395067214966,
				-1.873678207397461
			],
			"type":"VEC3"
		},
		{
			"bufferView":1,
			"componentType":5126,
			"count":619,
			"type":"VEC2"
		},
		{
			"bufferView":2,
			"componentType":5126,
			"count":619,
			"type":"VEC3"
		},
		{
			"bufferView":3,
			"componentType":5123,
			"count":2088,
			"type":"SCALAR"
		}
	],
	"bufferViews":[
		{
			"buffer":0,
			"byteLength":7428,
			"byteOffset":0,
			"target":34962
		},
		{
			"buffer":0,
			"byteLength":4952,
			"byteOffset":7428,
			"target":34962
		},
		{
			"buffer":0,
			"byteLength":7428,
			"byteOffset":12380,
			"target":34962
		},
		{
			"buffer":0,
			"byteLength":4176,
			"byteOffset":19808,
			"target":34963
		},
		{
			"buffer":0,
			"byteLength":6152,
			"byteOffset":23984
		}
	],
	"samplers":[
		{
			"magFilter":9729,
			"minFilter":9987
		}
	],
	"buffers":[
		{
			"byteLength":30136,
			"uri":"data:application/octet-stream;base64,"
		}
	]
}
