{
	"asset":{
		"generator":"Khronos glTF Blender I/O v3.5.30",
		"version":"2.0"
	},
	"scene":0,
	"scenes":[
		{
			"name":"Scene",
			"nodes":[
				0,
				1
			]
		}
	],
	"nodes":[
		{
			"mesh":0,
			"name":"CatoFinal",
			"rotation":[
				0.5002025961875916,
				0.49979740381240845,
				-0.49979737401008606,
				0.5002025961875916
			],
			"translation":[
				0.03026561439037323,
				2.182445526123047,
				-0.006895491387695074
			]
		},
		{
			"mesh":1,
			"name":"Prancha"
		}
	],
	"materials":[
		{
			"doubleSided":true,
			"name":"Material.008",
			"pbrMetallicRoughness":{
				"baseColorTexture":{
					"index":0
				},
				"metallicFactor":0,
				"roughnessFactor":0.5
			}
		},
		{
			"doubleSided":true,
			"name":"Material.009",
			"pbrMetallicRoughness":{
				"baseColorFactor":[
					0.9911020398139954,
					0.12213850021362305,
					0.01228654570877552,
					1
				],
				"metallicFactor":0,
				"roughnessFactor":0.5
			}
		},
		{
			"doubleSided":true,
			"name":"PranchaMaterial",
			"pbrMetallicRoughness":{
				"baseColorTexture":{
					"index":1
				},
				"metallicFactor":0,
				"roughnessFactor":0.5
			}
		}
	],
	"meshes":[
		{
			"extras":{
				"targetNames":[
					"Sorrindo"
				]
			},
			"name":"Plane.001",
			"primitives":[
				{
					"attributes":{
						"COLOR_0":0,
						"POSITION":1,
						"TEXCOORD_0":2,
						"NORMAL":3
					},
					"indices":4,
					"material":0,
					"targets":[
						{
							"POSITION":5,
							"NORMAL":6
						}
					]
				},
				{
					"attributes":{
						"COLOR_0":7,
						"POSITION":8,
						"TEXCOORD_0":9,
						"NORMAL":10
					},
					"indices":11,
					"material":1,
					"targets":[
						{
							"POSITION":12,
							"NORMAL":13
						}
					]
				}
			],
			"weights":[
				1
			]
		},
		{
			"name":"Cube.001",
			"primitives":[
				{
					"attributes":{
						"POSITION":14,
						"TEXCOORD_0":15,
						"NORMAL":16
					},
					"indices":17,
					"material":2
				}
			]
		}
	],
	"textures":[
		{
			"sampler":0,
			"source":0
		},
		{
			"sampler":0,
			"source":1
		}
	],
	"images":[
		{
			"bufferView":5,
			"mimeType":"image/png",
			"name":"Gato_Cor"
		},
		{
			"bufferView":19,
			"mimeType":"image/png",
			"name":"Prancha"
		}
	],
	"accessors":[
		{
			"bufferView":0,
			"componentType":5123,
			"count":10950,
			"normalized":true,
			"type":"VEC4"
		},
		{
			"bufferView":1,
			"componentType":5126,
			"count":10950,
			"max":[
				1.4137418270111084,
				1.73981773853302,
				2.198660373687744
			],
			"min":[
				-0.5918901562690735,
				-1.7399892807006836,
				-2.4663755893707275
			],
			"type":"VEC3"
		},
		{
			"bufferView":2,
			"componentType":5126,
			"count":10950,
			"type":"VEC2"
		},
		{
			"bufferView":3,
			"componentType":5126,
			"count":10950,
			"type":"VEC3"
		},
		{
			"bufferView":4,
			"componentType":5123,
			"count":60006,
			"type":"SCALAR"
		},
		{
			"bufferView":6,
			"componentType":5126,
			"count":10950,
			"max":[
				0.14479029178619385,
				0.07772442698478699,
				0.19899290800094604
			],
			"min":[
				-0.09160688519477844,
				-0.07775294780731201,
				-0.09671887755393982
			],
			"type":"VEC3"
		},
		{
			"bufferView":7,
			"componentType":5126,
			"count":10950,
			"type":"VEC3"
		},
		{
			"bufferView":8,
			"componentType":5123,
			"count":579,
			"normalized":true,
			"type":"VEC4"
		},
		{
			"bufferView":9,
			"componentType":5126,
			"count":579,
			"max":[
				2.9717586040496826,
				0.4758262038230896,
				1.136149287223816
			],
			"min":[
				0.6075788736343384,
				-0.47599726915359497,
				0.4821213185787201
			],
			"type":"VEC3"
		},
		{
			"bufferView":10,
			"componentType":5126,
			"count":579,
			"type":"VEC2"
		},
		{
			"bufferView":11,
			"componentType":5126,
			"count":579,
			"type":"VEC3"
		},
		{
			"bufferView":12,
			"componentType":5123,
			"count":3432,
			"type":"SCALAR"
		},
		{
			"bufferView":13,
			"componentType":5126,
			"count":579,
			"max":[
				0,
				0,
				0
			],
			"min":[
				0,
				0,
				0
			],
			"type":"VEC3"
		},
		{
			"bufferView":14,
			"componentType":5126,
			"count":579,
			"type":"VEC3"
		},
		{
			"bufferView":15,
			"componentType":5126,
			"count":7503,
			"max":[
				0.4346483051776886,
				0.060535840690135956,
				1.6421345472335815
			],
			"min":[
				-0.4346828758716583,
				-0.0634012445807457,
				-1.6412742137908936
			],
			"type":"VEC3"
		},
		{
			"bufferView":16,
			"componentType":5126,
			"count":7503,
			"type":"VEC2"
		},
		{
			"bufferView":17,
			"componentType":5126,
			"count":7503,
			"type":"VEC3"
		},
		{
			"bufferView":18,
			"componentType":5123,
			"count":11328,
			"type":"SCALAR"
		}
	],
	"bufferViews":[
		{
			"buffer":0,
			"byteLength":87600,
			"byteOffset":0,
			"target":34962
		},
		{
			"buffer":0,
			"byteLength":131400,
			"byteOffset":87600,
			"target":34962
		},
		{
			"buffer":0,
			"byteLength":87600,
			"byteOffset":219000,
			"target":34962
		},
		{
			"buffer":0,
			"byteLength":131400,
			"byteOffset":306600,
			"target":34962
		},
		{
			"buffer":0,
			"byteLength":120012,
			"byteOffset":438000,
			"target":34963
		},
		{
			"buffer":0,
			"byteLength":694858,
			"byteOffset":558012
		},
		{
			"buffer":0,
			"byteLength":131400,
			"byteOffset":1252872,
			"target":34962
		},
		{
			"buffer":0,
			"byteLength":131400,
			"byteOffset":1384272,
			"target":34962
		},
		{
			"buffer":0,
			"byteLength":4632,
			"byteOffset":1515672,
			"target":34962
		},
		{
			"buffer":0,
			"byteLength":6948,
			"byteOffset":1520304,
			"target":34962
		},
		{
			"buffer":0,
			"byteLength":4632,
			"byteOffset":1527252,
			"target":34962
		},
		{
			"buffer":0,
			"byteLength":6948,
			"byteOffset":1531884,
			"target":34962
		},
		{
			"buffer":0,
			"byteLength":6864,
			"byteOffset":1538832,
			"target":34963
		},
		{
			"buffer":0,
			"byteLength":6948,
			"byteOffset":1545696,
			"target":34962
		},
		{
			"buffer":0,
			"byteLength":6948,
			"byteOffset":1552644,
			"target":34962
		},
		{
			"buffer":0,
			"byteLength":90036,
			"byteOffset":1559592,
			"target":34962
		},
		{
			"buffer":0,
			"byteLength":60024,
			"byteOffset":1649628,
			"target":34962
		},
		{
			"buffer":0,
			"byteLength":90036,
			"byteOffset":1709652,
			"target":34962
		},
		{
			"buffer":0,
			"byteLength":22656,
			"byteOffset":1799688,
			"target":34963
		},
		{
			"buffer":0,
			"byteLength":22627,
			"byteOffset":1822344
		}
	],
	"samplers":[
		{
			"magFilter":9729,
			"minFilter":9987
		}
	],
	"buffers":[
		{
			"byteLength":1844972,
			"uri":"data:application/octet-stream;base64,"
		}
	]
}
